<svg width="914" height="400" fill="none" xmlns="http://www.w3.org/2000/svg"><path d="M425 200c0-13.12 0-19.68 3.26-24.32a17.99 17.99 0 0 1 4.4-4.42C437.34 168 443.9 168 457 168s19.68 0 24.32 3.26a17.99 17.99 0 0 1 4.42 4.4C489 180.34 489 186.9 489 200s0 19.68-3.26 24.32a17.99 17.99 0 0 1-4.4 4.42C476.66 232 470.1 232 457 232s-19.68 0-24.32-3.26a17.99 17.99 0 0 1-4.42-4.4C425 219.66 425 213.1 425 200Z" fill="url(#telemost__a)"/><path opacity=".6" d="M453.34 198a3 3 0 1 0 0-6 3 3 0 0 0 0 6Z" fill="#fff"/><path d="M449 214c7.732 0 14-6.268 14-14s-6.268-14-14-14-14 6.268-14 14 6.268 14 14 14Z" stroke="#fff" stroke-width="3"/><path d="M475 206a6 6 0 1 0 0-12 6 6 0 0 0 0 12Z" fill="#22D3FF"/><defs><linearGradient id="telemost__a" x1="418.46" y1="239.28" x2="489" y2="168" gradientUnits="userSpaceOnUse"><stop/><stop offset="1" stop-color="#31404E"/></linearGradient></defs></svg>