<svg width="914" height="400" fill="none" xmlns="http://www.w3.org/2000/svg"><mask id="telemost__a" style="mask-type:luminance" maskUnits="userSpaceOnUse" x="425" y="168" width="64" height="64"><path d="M489 200c0-17.673-14.327-32-32-32-17.673 0-32 14.327-32 32 0 17.673 14.327 32 32 32 17.673 0 32-14.327 32-32Z" fill="#fff"/></mask><g mask="url(#telemost__a)"><path d="M489 200c0-17.673-14.327-32-32-32-17.673 0-32 14.327-32 32 0 17.673 14.327 32 32 32 17.673 0 32-14.327 32-32Z" fill="#4CEE8F"/><path d="M464.217 180.795c9.912 0 17.948 8.035 17.949 17.947a17.902 17.902 0 0 1-5.938 13.333l-11.64 11.1a.767.767 0 0 1-1.296-.555v-5.163a.766.766 0 0 0-.766-.767h-12.74c-9.912 0-17.948-8.036-17.948-17.948s8.036-17.947 17.948-17.947h14.431Z" fill="#1A1A1A"/><g filter="url(#telemost__b)"><path d="M473.092 201.18a2.15 2.15 0 1 1-.002-4.298 2.15 2.15 0 0 1 .002 4.298Z" fill="#66FF75"/></g><path d="M448.962 209.646c6.034 0 10.925-4.891 10.925-10.925 0-6.034-4.891-10.926-10.925-10.926-6.035 0-10.926 4.892-10.926 10.926s4.891 10.925 10.926 10.925Z" fill="#fff"/><path d="M448.96 207.218a8.497 8.497 0 0 0 8.497-8.497 8.497 8.497 0 0 0-8.497-8.497 8.497 8.497 0 0 0-8.497 8.497 8.497 8.497 0 0 0 8.497 8.497Z" fill="#1A1A1A"/><path d="M448.96 207.215a8.494 8.494 0 1 0 0-16.988 8.494 8.494 0 0 0 0 16.988Z" fill="url(#telemost__c)"/><path d="M448.96 207.215a8.494 8.494 0 1 0 0-16.988 8.494 8.494 0 0 0 0 16.988Z" fill="url(#telemost__d)"/><g filter="url(#telemost__e)"><path d="M448.789 202.238a.53.53 0 0 0 .527-.535.53.53 0 0 0-.527-.534.53.53 0 0 0-.527.534.53.53 0 0 0 .527.535Z" fill="#3AAB1D"/></g><g filter="url(#telemost__f)"><path d="M453.151 197.907c0 1.866.251-2.478-4.018-2.478-4.017 0-4.017 4.344-4.017 2.478s1.798-3.379 4.017-3.379c2.219 0 4.018 1.513 4.018 3.379Z" fill="url(#telemost__g)"/></g></g><defs><filter id="telemost__b" x="466.007" y="191.945" width="14.171" height="14.171" filterUnits="userSpaceOnUse" color-interpolation-filters="sRGB"><feFlood flood-opacity="0" result="BackgroundImageFix"/><feColorMatrix in="SourceAlpha" values="0 0 0 0 0 0 0 0 0 0 0 0 0 0 0 0 0 0 127 0" result="hardAlpha"/><feOffset/><feGaussianBlur stdDeviation="2.468"/><feComposite in2="hardAlpha" operator="out"/><feColorMatrix values="0 0 0 0 0.305078 0 0 0 0 1 0 0 0 0 0.37457 0 0 0 0.9 0"/><feBlend in2="BackgroundImageFix" result="effect1_dropShadow_888_110"/><feBlend in="SourceGraphic" in2="effect1_dropShadow_888_110" result="shape"/></filter><filter id="telemost__e" x="446.748" y="199.654" width="4.083" height="4.098" filterUnits="userSpaceOnUse" color-interpolation-filters="sRGB"><feFlood flood-opacity="0" result="BackgroundImageFix"/><feBlend in="SourceGraphic" in2="BackgroundImageFix" result="shape"/><feGaussianBlur stdDeviation=".757" result="effect1_foregroundBlur_888_110"/></filter><filter id="telemost__f" x="443.928" y="193.341" width="10.414" height="6.22" filterUnits="userSpaceOnUse" color-interpolation-filters="sRGB"><feFlood flood-opacity="0" result="BackgroundImageFix"/><feBlend in="SourceGraphic" in2="BackgroundImageFix" result="shape"/><feGaussianBlur stdDeviation=".594" result="effect1_foregroundBlur_888_110"/></filter><radialGradient id="telemost__c" cx="0" cy="0" r="1" gradientUnits="userSpaceOnUse" gradientTransform="rotate(90 125.12 323.84) scale(8.49426)"><stop offset=".27" stop-color="#1A1A1A"/><stop offset=".482" stop-color="#1A1A1A"/><stop offset=".659" stop-color="#2C2C2C"/><stop offset=".885" stop-color="#1A1A1A"/></radialGradient><radialGradient id="telemost__d" cx="0" cy="0" r="1" gradientUnits="userSpaceOnUse" gradientTransform="rotate(90 125.12 323.84) scale(8.49426)"><stop offset=".27" stop-color="#121212"/><stop offset=".575" stop-color="#1A1A1A"/><stop offset=".659" stop-color="#404040"/><stop offset=".885" stop-color="#060606"/></radialGradient><linearGradient id="telemost__g" x1="454.909" y1="196.33" x2="442.353" y2="196.33" gradientUnits="userSpaceOnUse"><stop stop-color="#fff" stop-opacity="0"/><stop offset=".224" stop-color="#fff" stop-opacity="0"/><stop offset=".422" stop-color="#fff"/><stop offset=".604" stop-color="#fff"/><stop offset=".766" stop-color="#fff" stop-opacity="0"/><stop offset=".911" stop-color="#fff" stop-opacity="0"/></linearGradient></defs></svg>